# File created by Blade
# Date/Time:  Tue Jan 27 18:50:13 2015
#---------------------------------------------------------
:version 1.10
:name HOM
:units
  mass 1.0
  length 1.000000
  angle deg
:documentation
     Acclaim Skeleton File
:root
   axis xyz
   order TX TY TZ RX RY RZ
   position 0.000000 0.000000 0.000000
   orientation 0 0 0
:bonedata
   begin
      id 1
      name Spine_dum
      direction 0.000000 1.000000 0.000000
      length 5.195262
      axis 0.0 0.0 0.0 xyz
   end
   begin
      id 2
      name LeftUpLeg_dum
      direction 1.000000 0.000000 0.000000
      length 3.351363
      axis 0.0 0.0 0.0 xyz
   end
   begin
      id 3
      name RightUpLeg_dum
      direction -1.000000 0.000000 0.000000
      length 3.351363
      axis 0.0 0.0 0.0 xyz
   end
   begin
      id 4
      name Spine
      direction 0.000000 1.000000 0.000000
      length 0.000000
      axis 0.0 0.0 0.0 xyz
      dof rx ry rz
   end
   begin
      id 5
      name Spine_dum1
      direction 0.000000 1.000000 0.000000
      length 15.653875
      axis 0.0 0.0 0.0 xyz
   end
   begin
      id 6
      name Spine_dum2
      direction 0.000000 1.000000 0.000000
      length 10.329768
      axis 0.0 0.0 0.0 xyz
   end
   begin
      id 7
      name Spine_dum3
      direction 0.000000 1.000000 0.000000
      length 10.329768
      axis 0.0 0.0 0.0 xyz
   end
   begin
      id 8
      name Head
      direction 0.000000 1.000000 0.000000
      length 4.527550
      axis 0.0 0.0 0.0 xyz
      dof rx ry rz
   end
   begin
      id 9
      name LeftShoulder
      direction 1.000000 0.000000 0.000000
      length 6.996006
      axis 0.0 0.0 -90.0 xyz
      dof rx ry rz
   end
   begin
      id 10
      name LeftArm
      direction 1.000000 0.000000 0.000000
      length 10.209302
      axis 0.0 0.0 -90.0 xyz
      dof rx ry rz
   end
   begin
      id 11
      name LeftForeArm
      direction 1.000000 0.000000 0.000000
      length 8.563163
      axis 0.0 0.0 -90.0 xyz
      dof ry rz rx
   end
   begin
      id 12
      name LeftHand
      direction 0.000000 0.000000 0.000000
      length 0.000000
      axis 0.0 0.0 -90.0 xyz
      dof rx ry rz
   end
   begin
      id 13
      name LeftHand_dum1
      direction 0.000000 0.000000 0.000000
      length 0.000000
      axis 0.0 0.0 -90.0 xyz
   end
   begin
      id 14
      name LeftHand_dum2
      direction 1.000000 0.000000 0.000000
      length 3.937000
      axis 0.0 0.0 -90.0 xyz
   end
   begin
      id 15
      name LeftHandThumb1
      direction 0.000000 0.000000 1.000000
      length 3.937000
      axis 0.0 0.0 -90.0 xyz
      dof rx rz ry
   end
   begin
      id 16
      name RightShoulder
      direction -1.000000 0.000000 0.000000
      length 6.996006
      axis 0.0 0.0 90.0 xyz
      dof rx ry rz
   end
   begin
      id 17
      name RightArm
      direction -1.000000 0.000000 0.000000
      length 10.209302
      axis 0.0 0.0 90.0 xyz
      dof rx ry rz
   end
   begin
      id 18
      name RightForeArm
      direction -1.000000 0.000000 0.000000
      length 8.563163
      axis 0.0 0.0 90.0 xyz
      dof ry rz rx
   end
   begin
      id 19
      name RightHand
      direction 0.000000 0.000000 0.000000
      length 0.000000
      axis 0.0 0.0 90.0 xyz
      dof rx ry rz
   end
   begin
      id 20
      name RightHand_dum1
      direction 0.000000 0.000000 0.000000
      length 0.000000
      axis 0.0 0.0 90.0 xyz
   end
   begin
      id 21
      name RightHand_dum2
      direction -1.000000 0.000000 0.000000
      length 3.937000
      axis 0.0 0.0 90.0 xyz
   end
   begin
      id 22
      name RightHandThumb1
      direction 0.000000 0.000000 1.000000
      length 3.937000
      axis 0.0 0.0 90.0 xyz
      dof rx rz ry
   end
   begin
      id 23
      name LeftUpLeg
      direction 0.000000 -1.000000 0.000000
      length 16.346831
      axis 0.0 0.0 0.0 xyz
      dof rx ry rz
   end
   begin
      id 24
      name LeftLeg
      direction 0.000000 -1.000000 0.000000
      length 13.959795
      axis 0.0 0.0 0.0 xyz
      dof rx ry rz
   end
   begin
      id 25
      name LeftFoot
      direction 0.000000 -0.258819 0.965926
      length 5.165550
      axis 15.0 0.0 0.0 xyz
      dof rx ry rz
   end
   begin
      id 26
      name LeftToeBase
      direction 0.000000 0.000000 1.000000
      length 2.952750
      axis 0.0 0.0 0.0 xyz
      dof rx ry rz
   end
   begin
      id 27
      name RightUpLeg
      direction 0.000000 -1.000000 0.000000
      length 16.346831
      axis 0.0 0.0 0.0 xyz
      dof rx ry rz
   end
   begin
      id 28
      name RightLeg
      direction 0.000000 -1.000000 0.000000
      length 13.959795
      axis 0.0 0.0 0.0 xyz
      dof rx ry rz
   end
   begin
      id 29
      name RightFoot
      direction 0.000000 -0.258819 0.965926
      length 5.165550
      axis 15.0 0.0 0.0 xyz
      dof rx ry rz
   end
   begin
      id 30
      name RightToeBase
      direction 0.000000 0.000000 1.000000
      length 2.952750
      axis 0.0 0.0 0.0 xyz
      dof rx ry rz
   end
:hierarchy
   begin
      root Spine_dum LeftUpLeg_dum RightUpLeg_dum
      Spine_dum Spine
      LeftUpLeg_dum LeftUpLeg
      RightUpLeg_dum RightUpLeg
      Spine Spine_dum1 Spine_dum2 Spine_dum3
      Spine_dum1 Head
      Spine_dum2 LeftShoulder
      Spine_dum3 RightShoulder
      LeftShoulder LeftArm
      LeftArm LeftForeArm
      LeftForeArm LeftHand
      LeftHand LeftHand_dum1 LeftHand_dum2
      LeftHand_dum1 LeftHandThumb1
      RightShoulder RightArm
      RightArm RightForeArm
      RightForeArm RightHand
      RightHand RightHand_dum1 RightHand_dum2
      RightHand_dum1 RightHandThumb1
      LeftUpLeg LeftLeg
      LeftLeg LeftFoot
      LeftFoot LeftToeBase
      RightUpLeg RightLeg
      RightLeg RightFoot
      RightFoot RightToeBase
   end

# File created by Blade
# Date/Time:  Tue Jan 27 18:50:05 2015
# Frame Rate: 120.000 fps
#------------------------------------------------------
:FULLY-SPECIFIED
:DEGREES
446
root -2.591233 31.988191 -6.434975 -0.665087 40.881329 -6.547763
Spine 7.606824 -15.817680 -2.287863
Head 3.067317 1.677744 10.885462
LeftShoulder -8.167690 6.208239 19.682819
LeftArm 29.742670 -17.392027 -78.346824
LeftForeArm -6.577820 -0.000000 102.502107
LeftHand -10.240176 0.000000 15.646840
LeftHandThumb1 -26.253704 0.000000 33.147579
RightShoulder -12.742961 -3.331100 -9.474027
RightArm 6.419033 -24.473011 82.232209
RightForeArm -27.772260 0.000000 33.231345
RightHand -15.372485 0.000000 9.226086
RightHandThumb1 -24.326973 -0.000000 -32.862282
LeftUpLeg -9.015056 -10.586017 -1.371015
LeftLeg 19.814085 -0.000000 -0.000000
LeftFoot -21.549619 10.936258 -18.018427
LeftToeBase 5.945638 -0.000000 -0.000000
RightUpLeg -78.675552 8.606479 16.332615
RightLeg 94.197402 -0.000000 -0.000000
RightFoot -0.821550 -5.264125 15.300801
RightToeBase 2.547162 -0.000000 -0.000000
447
root -2.591973 31.984726 -6.437714 -0.559776 40.880738 -6.485084
Spine 7.563795 -15.813202 -2.275266
Head 2.945701 1.593792 10.850693
LeftShoulder -8.196721 6.236162 19.642611
LeftArm 29.681886 -17.436514 -78.217941
LeftForeArm -6.870712 -0.000000 102.600674
LeftHand -10.174771 0.000000 15.475065
LeftHandThumb1 -26.253704 0.000000 33.147579
RightShoulder -12.796751 -3.339829 -9.438829
RightArm 6.351022 -24.575777 82.265743
RightForeArm -27.842708 -0.000000 32.957387
RightHand -15.285710 -0.000000 9.368926
RightHandThumb1 -24.326973 -0.000000 -32.862282
LeftUpLeg -9.089341 -10.619148 -1.408505
LeftLeg 19.811978 -0.000000 -0.000000
LeftFoot -21.529367 11.003905 -17.917169
LeftToeBase 5.880803 -0.000000 -0.000000
RightUpLeg -78.699539 8.575084 16.347901
RightLeg 94.123296 -0.000000 -0.000000
RightFoot -0.920235 -5.454224 15.297990
RightToeBase 2.583458 -0.000000 -0.000000
448
root -2.594640 31.981851 -6.441294 -0.486035 40.858777 -6.429275
Spine 7.574050 -15.820161 -2.273928
Head 2.805505 1.518264 10.822767
LeftShoulder -8.285632 6.269002 19.594508
LeftArm 29.634385 -17.456319 -78.067435
LeftForeArm -7.092213 -0.000000 102.685729
LeftHand -10.092381 -0.000000 15.338000
LeftHandThumb1 -26.253704 0.000000 33.147579
RightShoulder -12.808920 -3.426617 -9.383382
RightArm 6.367284 -24.631189 82.290947
RightForeArm -27.838230 -0.000000 32.723835
RightHand -15.432754 -0.000000 9.351669
RightHandThumb1 -24.326973 -0.000000 -32.862282
LeftUpLeg -9.136127 -10.603260 -1.450786
LeftLeg 19.817780 -0.000000 -0.000000
LeftFoot -21.484769 11.083964 -17.800073
LeftToeBase 5.660833 -0.000000 -0.000000
RightUpLeg -78.688190 8.561442 16.383493
RightLeg 94.030639 -0.000000 -0.000000
RightFoot -0.972019 -5.653164 15.232486
RightToeBase 2.495540 -0.000000 -0.000000
449
root -2.596443 31.978370 -6.444842 -0.421771 40.843259 -6.381938
Spine 7.580165 -15.816741 -2.256772
Head 2.680770 1.443794 10.773470
LeftShoulder -8.355685 6.314181 19.506913
LeftArm 29.620624 -17.499119 -77.872145
LeftForeArm -7.371094 -0.000000 102.796922
LeftHand -10.173561 -0.000000 15.228644
LeftHandThumb1 -26.253704 0.000000 33.147579
RightShoulder -12.814561 -3.503197 -9.347721
RightArm 6.329093 -24.637467 82.351583
RightForeArm -27.938188 -0.000000 32.476586
RightHand -15.366931 -0.000000 9.351281
RightHandThumb1 -24.326973 -0.000000 -32.862282
LeftUpLeg -9.170786 -10.594944 -1.487195
LeftLeg 19.805551 -0.000000 -0.000000
LeftFoot -21.492672 11.130147 -17.739946
LeftToeBase 5.607250 -0.000000 -0.000000
RightUpLeg -78.677042 8.528351 16.437608
RightLeg 93.951144 -0.000000 -0.000000
RightFoot -1.019797 -5.826366 15.246554
RightToeBase 2.468804 -0.000000 -0.000000
